<svg width="18" height="20" viewBox="0 0 18 20" fill="none" xmlns="http://www.w3.org/2000/svg">
<path d="M16.4819 8.33325C16.4819 14.1666 8.98767 19.1666 8.98767 19.1666C8.98767 19.1666 1.49344 14.1666 1.49344 8.33325C1.49344 6.34413 2.28301 4.43647 3.68845 3.02995C5.09389 1.62343 7.00008 0.833252 8.98767 0.833252C10.9753 0.833252 12.8814 1.62343 14.2869 3.02995C15.6923 4.43647 16.4819 6.34413 16.4819 8.33325Z" stroke="#17C2EC" stroke-width="2" stroke-linecap="round" stroke-linejoin="round"/>
<path d="M8.98767 10.8333C10.3673 10.8333 11.4857 9.71396 11.4857 8.33325C11.4857 6.95254 10.3673 5.83325 8.98767 5.83325C7.60802 5.83325 6.48959 6.95254 6.48959 8.33325C6.48959 9.71396 7.60802 10.8333 8.98767 10.8333Z" stroke="#17C2EC" stroke-width="2" stroke-linecap="round" stroke-linejoin="round"/>
</svg>
